<?xml version="1.0" encoding="UTF-8"?>
<svg id="Layer_1" data-name="Layer 1" xmlns="http://www.w3.org/2000/svg" viewBox="0 0 346.21 346.21">
  <defs>
    <style>
      .cls-1 {
        fill: #8fc149;
      }

      .cls-2 {
        fill: #85c635;
      }

      .cls-3 {
        fill: #b2bd96;
      }

      .cls-4 {
        fill: #7bb5d3;
      }

      .cls-5 {
        fill: #87c635;
      }

      .cls-6 {
        fill: #fbfcfb;
      }

      .cls-7 {
        fill: #f7f9dc;
      }

      .cls-8 {
        fill: #e28b30;
      }

      .cls-9 {
        fill: #60b3df;
      }

      .cls-10 {
        fill: #d68730;
      }

      .cls-11 {
        fill: #8ab3ca;
      }

      .cls-12 {
        fill: #87c737;
      }

      .cls-13 {
        fill: #e9d6a3;
      }

      .cls-14 {
        fill: #cda975;
      }

      .cls-15 {
        fill: #1080af;
      }

      .cls-16 {
        fill: #dc8b37;
      }

      .cls-17 {
        fill: #f7f8dd;
      }

      .cls-18 {
        fill: #fa8716;
      }

      .cls-19 {
        fill: #d98d3c;
      }

      .cls-20 {
        fill: #73b6dd;
      }

      .cls-21 {
        fill: #f8fcef;
      }

      .cls-22 {
        fill: #dca159;
      }

      .cls-23 {
        fill: #def4b6;
      }

      .cls-24 {
        fill: #e7f9c8;
      }

      .cls-25 {
        fill: #edfbf5;
      }

      .cls-26 {
        fill: #8bc342;
      }

      .cls-27 {
        fill: #137ea8;
      }

      .cls-28 {
        fill: #c6a16d;
      }

      .cls-29 {
        fill: #df8e34;
      }

      .cls-30 {
        fill: #f8fced;
      }

      .cls-31 {
        fill: #dec094;
      }

      .cls-32 {
        fill: #f7ecd2;
      }

      .cls-33 {
        fill: #207796;
      }

      .cls-34 {
        fill: #f4fbe7;
      }

      .cls-35 {
        fill: #d98a39;
      }

      .cls-36 {
        fill: #62b2df;
      }

      .cls-37 {
        fill: #f88613;
      }

      .cls-38 {
        fill: #87c834;
      }

      .cls-39 {
        fill: #88b5c8;
      }
    </style>
  </defs>
  <rect class="cls-7" width="346.21" height="346.21"/>
  <g>
    <path class="cls-38" d="M97.11,72.84c-63.32,52.29-62.89,149.51.79,201.95,8.56,7.05,28,19.69,38.82,20.95,8.3.97,27.6-1.01,27.39-12.4-.24-13.25-28.39-24.31-38.97-28.54l.44-2.97c7.74-4.72,10.56-12.93,20.72-10.69,18.54,4.1,63.51,20.35,73.01,37,5.92,10.36,1.64,19.6-6.21,27.22,6.16.17,13.45-3.11,19.35-5.65,12.62-5.43,22.75-15.63,32.69-20.31,2.94-1.38,6.33-.75,9.9-3.1,5.87-3.86,4.86-9.15,7.8-14.2,7.28-12.54,17.52-14.35,22.02-30.98,1.94-7.17,4.1-14.73,5.95-22.05,13.75-54.51-4.92-110.13-49.82-143.6l-20.89-13.6c19.08-2.76,33.88,10.65,46.02,23.46,63.62,67.17,45.19,178.05-33.72,224.33-79.72,46.75-181.3,7.54-210.76-78.85C1.18,102.08,121.67-12.74,237.78,39.67l12.33,7.17h-14.5c-17.87,0-41.32,19.16-56.63,27.37-20.7,11.09-36.8,12.7-59.87,8.63-3.55-.53-17.66-4.55-15.49-9.09.49-1.02,15.37-11.17,17.91-12.68,10.15-6.03,28.2-14.81,39.84-15.17.57-.02,1.15.4,1.74.94,2.73-3.08-2.91-2.94-6-2l-2.32,2.05c-20.1,2.03-37.95,13.19-53.65,25.26l-4.03.69Z"/>
    <path class="cls-2" d="M117.11,184.84c5.18.04,25.79,2.92,25.05,10.45-.99,10.1-40.32,12.41-44.56,21.57-3.35,7.26,16.3,13.6,21.5,14.99,1.09,1.57-7.97,13.13-8.63,16.06-9.84-2.11-41.99-15.92-41.35-27.5.82-15,37.77-18.23,48.42-21.64,17.06-5.46,5.96-10.09-4.44-12.94-1.38-1.53-.05-1.86,4-1Z"/>
    <path class="cls-12" d="M211.11,129.84c4.67,1.7,5.16,22.59,3.45,24.12-.41.37-.92.64-1.45.88-1.28,9.52-9.49,19.91-18,24-4.34,4.7-10.41,6.83-18.22,6.38l-3.78,1.62c.36,3-5.47,2.85-6,0,1.13-6.98,16.68-16.7,22-22,1.02-2.51-.61-3.11-3-2-6.98,5.57-15.54,9.57-21.99,16-3.09-12.14,3.61-26.98,14.47-33.02,10.42-5.8,24.45-8.14,32.02-17.97,1.04-.05.23,1.63.5,2Z"/>
    <path class="cls-18" d="M201.11,186.84c10.76,3.96,14.98,5.69,22,14,1.97,1.9,1.97,4.57,0,8-7.69,14.57-25.35,24.02-39,32-3.65,1.97-5.31,2.34-3-2,7.06-9.98,15.99-18.77,21.87-29.37-1.15-6.07-38.65-5.39-35.87-22.63h6c3.54-1.79,7.77-2.5,12.68-2.14,5.17-1.45,11.41-2.43,15.32,2.14Z"/>
    <path class="cls-20" d="M97.11,96.85c-21.31,23.38,5.77,59.34,33.99,44.99-3.49,8.35-13.96,14.59-22.75,15.74-38.02,4.97-48.73-52.28-11.24-60.73Z"/>
    <path class="cls-9" d="M177.06,203.89c1.07,1.56-6.31,9.88-7.92,11.49-11.22,11.26-28.16,18-40.52,28.48-6.5,5.51-11.71,12.76-18.51,17.98,2.86-12.92,11.13-26.71,20.98-35.51,4.8-4.29,12.15-7.63,16.53-12.47,5.37-5.93,9.53-16.89,13.49-24.01,1.91.93,2.13,4.04,3.55,5.93,3.63,4.78,11.97,7.49,12.39,8.11Z"/>
    <path class="cls-27" d="M253.11,202.84c2.96-1.79,6.15-3.76,9.31-5.19,1.45-.65,6.22-1.46,6.55-1.95,2.62-3.88-2.85-4.05-2.91-4.38-1.75-8.63,12.88-5.61,13.62-4.56,3.08,4.38-3.45,5.1-3.63,5.63-1.82,5.6,9.63,4.45,12.57,8.26,3.22-1.55.61-5.05,3.98-6.71,2.44,1.85,9.22,5.5,4.55,8.35-.74.46-3.08-.99-4.04,1.06,11.97,13.49,11.14,34.29-4.07,44.92-7.43,5.2-20.85,6.48-28.94,2.56-2.89,1.45-8.48-4.02-10.55-6.56-10.58-13.05-9.29-31.13,3.55-41.44Z"/>
    <path class="cls-36" d="M206.1,124.85c.58,5.85-22.9,14.93-23.97,13.97-.68-.61.92-4.14-4.97-5.55-18.46-4.43-28.46,14.05-40.05,24.56,3.49-12.77,10.71-30.17,23.62-35.87,13.98-6.17,31.63-2.1,45.37,2.89Z"/>
    <path class="cls-15" d="M231.11,224.84c2.4-3.76,8.11-1.7,10.06,1.84,3.77,6.83,8.17,18.87-3.79,11.43-31.86,2.25-3.49,42.41,8.98,13.6-.47-8.92,3.78-8.54,12.75,1.13-2.61,2.51-7.34,2.01-6.93,7.54.18,2.44,3.22,2.62.99,6-3.88,5.89-5.2,1.67-8.53,1.56-6.76-.22-4.85,5.95-7.16,6.77-8.61,3.06-6.06-5.07-10.34-6.46-4.89-1.58-6.8,4.61-11.1-1.88-2.3-3.47,1.58-3.98.91-7.78-.84-4.81-5.31-3.18-6.42-4.69-.65-.89-.75-7.46-.32-7.96.51-.58,4.48.12,6.15-3.35,2.33-4.85-2.77-5.61-.32-9.29,4.65-7.02,6.31.28,9.99-.95,4.02-1.34,3.78-4.42,5.07-7.51Z"/>
    <path class="cls-37" d="M217.11,155.84l-1.99-1.15c.15-6.8.15-13.6,0-20.4l2-1.44c4.27,3.9,14.38,18.57,20.42,17.99,6.45-.61,20.34-17.09,25.08-21.99.81,11.22-14.8,34.42-26.09,35.95-8.23,1.11-13.31-5.58-19.42-8.95Z"/>
    <path class="cls-5" d="M207.44,101.18c1.93-2.02,5.37-3.25,8.14-3.41,20.23-1.16,17.67,30.22-3.5,24.59-8.52-2.26-10.34-15.22-4.63-21.19Z"/>
    <path class="cls-25" d="M253.11,202.84c-5.1,7.56-9.5,13.51-8.91,23.35.54,9.02,7.76,20.71,15.91,24.65-.4.54-.61,1.62-1,2-4.45-.75-7.32-4.81-10.99-7,4.31,23.73-31,23.54-26.77.73,1.23-6.64,9.45-11.8,16.02-10.53,2.38.46,4.19,2.93,6.74,2.78-.8-1.8-5.27-13.08-5.93-13.56-1.47-1.06-5.15-.21-7.07-.43.11-.27-.16-.82.03-1.32.62-1.65,2.13,1.14.97-2.68-.04-2.24,2.15-2.41,6.59-.52l2.41.52.9-2.74c-1.51-1.93-1.95-3.74,1.1-4.26-1.38-2.95-1.2-5.71,2-7,6.46-.23,4-2.12,6.24-3.79.66-.49,1.54-.08,1.76-.21Z"/>
    <path class="cls-30" d="M157.11,44.84c3.2-.93,10.97-1.54,6,2-13.02,2.65-27.86,8.48-39.31,15.19-6.57,3.86-12.21,8.89-18.69,12.82-.24,1.29-.27,1.27.62,2.06,2.92,2.61,10.05,3.42,13.38,5.92-1.87-.33-4.04.36-6.25-.24-1.53-.42-3.72-2.44-5.76-3.28-1.15-.48-3.8-.34-3.95-.51-.52-.54.45-4.37-.08-4.93-.21-.22-4.85-.3-5.96-1.04,15.32-12.66,39.33-27.78,60-28Z"/>
    <path class="cls-1" d="M275.04,257.9c.44.73-.24,2.95.08,4.24.2.82,1.79.66,1.98,1.35,1,3.57-1.54,3.06-1.94,4.08-.49,1.21.5,3.93-.98,4.85-1.23.77-3.27.03-4.35.47-1.16.47-.13,2.3-3.25,2.04-1.85-.16-1.18-1.63-2.2-2.03-1.24-.49-3.78.51-4.85-1.02-.72-1.02.62-2.61.42-3.46-.35-1.48-2.66-1.37-2.82-1.6-.94-1.33,1.76-2.8,2.42-4.03.7-1.31.3-3.49,1.55-4.45.28-.21,6.16-2.47,6.51-2.46,1.19.01,2.16,1.34,3.21,1.58.92.2,3.87-.12,4.22.46Z"/>
    <path class="cls-8" d="M245.11,206.84c.04,2.56-1.37,4.54-2,7-6.13-2.76-8.45-2.44-6.97.95,5.05-.54,7.59.97,4.97,6.05-4.85,4.8-4.24-1.09-9,0-.52-1.72-2.97-6.84-2.97-7.5,0-.38,2.66-6.84,2.95-7.08.64-.52,2.21.33,3.04-.02,1.09-.46,1.88-2.7,3.35-2.35,1.15.28,2.77,3.08,6.63,2.95Z"/>
    <path class="cls-4" d="M113.35,108.59c1.45,1.32,5.14.71,5.75,3.24-5.28.8-7.69,3.66-8.01,9.01-3.57-3.98-3.1-8.75-9.98-9.01,1.36-2.22,4.45-1.56,6.57-3.91,1.46-1.62,2.06-3.97,2.44-6.07,2.01.87,1.59,5.23,3.23,6.74Z"/>
    <path class="cls-17" d="M217.11,132.84v23c-1.29-.72-2.5-1.08-4-1,1.03-7.63-.15-17.54-2-25,.35.48,3.7.9,6,3Z"/>
    <path class="cls-7" d="M195.11,178.84l-1.99,3.99c3.64-.51,7.22-.16,7.99,4.01-10.21-3.76-6.53-1.23-15.58-.08-3.8.48-8.48.08-12.42.08.87-4.99,8.62-3.57,12.06-4.44,3.74-.95,6.47-1.89,9.94-3.56Z"/>
    <path class="cls-35" d="M237.1,84.85c2.82,2.75-5.93,12.28-7.48,11.99-4.02-.76,2.51-8.54,3.46-9.52,1.14-1.17,2.14-2.79,4.01-2.47Z"/>
    <path class="cls-16" d="M196.97,104.98c.33.49.27,3.72.13,3.86-.71.74-15.51-2.56-11.99-5.99.76-.74,11.28,1.29,11.86,2.13Z"/>
    <path class="cls-19" d="M248.1,102.85c3.17,3-10.59,7.85-11.99,4.48-1.09-2.63.19-1.97,1.42-2.57,3.36-1.65,6.81-2.34,10.56-1.91Z"/>
    <path class="cls-10" d="M197.61,84.86c1.43,1.52,10.97,10.91,5.99,11.98-1.54.33-8.3-8.87-8.28-9.51s1.76-1.76,2.29-2.47Z"/>
    <path class="cls-11" d="M78.11,160.85c1.98,1.96-3.14,2.19-4.1,3.39-.76.94-.88,2.41-.91,3.6-2.21-.46-1.57-3.45-3.03-4.5-.67-.48-5.63-.74-2.24-2.48.63-.32,1.83.11,2.76-1.01.82-.99.53-3.13,2.02-4-.03,4.95,4.94,4.45,5.5,5.01Z"/>
    <path class="cls-29" d="M219.02,90.73c-.29.49-3.21,1.58-3.78-.52-.85-3.13.32-7.97-.12-11.37,5.14-2.51,4.69,10.58,3.9,11.89Z"/>
    <path class="cls-24" d="M189.11,164.84c.47-2.67-.63-2.04-3-2,4.79-3.82,8.86-8.51,12.99-13-1.44,5.85-5.84,10.87-9.99,15Z"/>
    <path class="cls-39" d="M130.1,126.85c-.05,1.88-2.78.69-4.1,2.38-.73.94-.85,2.42-.9,3.6-2.48-1.69-1.44-5.65-5.99-5,2.67-2.47,4.13-1.99,5.5-5.98.87,3.29,1.92,4.63,5.49,5.01Z"/>
    <path class="cls-3" d="M117.11,184.84c-1.31,0-3.32-.47-4,1l-12.99-2.99c5.5-.08,11.73.27,16.99,1.99Z"/>
    <path class="cls-22" d="M181.11,238.84c-.47,2.67.63,2.04,3,2-1.58.92-3.97,4.47-7,3.99-.47-.39,3.43-5.19,4-5.99Z"/>
    <path class="cls-13" d="M223.11,200.84c.19.23,1.83-.91,2.1,1.46.43,3.8-.87,4.21-2.1,6.54.5-2.82,1.31-5.24,0-8Z"/>
    <path class="cls-23" d="M157.11,44.84c9.53-3.51,20.05-1.48,29.99-1.99-.12,1.41-4.49,1.75-5.62,1.87-6.47.65-11.8.78-18.38,2.12.9-3.06-3.23-2.03-6-2Z"/>
    <path class="cls-6" d="M268.84,201.09c35.74-5.44,36.41,52.89-1,46.52-24.86-4.23-23.76-42.75,1-46.52Z"/>
    <path class="cls-26" d="M240.75,241.24c10.76,5.33-.21,27.15-12.6,17.06-9.65-7.86-.51-23.55,12.6-17.06Z"/>
    <path class="cls-32" d="M243.11,213.84c-.68,2.66.96,4.07-2,7,1.71-6.96-4.67-2.25-6.57-4.93-3.95-5.59,5.17-9.2,8.57-2.07Z"/>
    <path class="cls-34" d="M265.82,260.98c3.81-1.06,7.62,3.63,4.76,6.79-5.76,6.36-11.09-5.02-4.76-6.79Z"/>
    <path class="cls-33" d="M283.1,213.85l-7.93,13.58c-1.92,2.49-5.63.61-6.1-2.11-.91-5.21,2.76-3.76,5.6-5.43,1.52-.89,7.54-6.97,8.44-6.05Z"/>
    <path class="cls-31" d="M275.1,202.85c1.78,1.78-2.43,7.97-3.87,3.37-1.34-4.25,2.96-4.29,3.87-3.37Z"/>
    <path class="cls-14" d="M291.1,212.85c.57,6.34-6.97,4-1.48,0h1.48Z"/>
    <path class="cls-28" d="M284.1,205.85c.62.66-.22,3.5-1.51,3.99-3.47,1.32-.38-6.02,1.51-3.99Z"/>
    <path class="cls-21" d="M231.81,245.05c10.76-3.25,10.77,11.47,1.94,10.54-5.37-.57-6.57-9.14-1.94-10.54Z"/>
  </g>
</svg>